<svg xmlns="http://www.w3.org/2000/svg" viewBox="0 0 567.47 168.1"><defs><style>.cls-1{fill:#ed1c24;}</style></defs><g id="Layer_2" data-name="Layer 2"><g id="Layer_3" data-name="Layer 3"><path class="cls-1" d="M100.41,52.81c-6.65,36-49.78,99.32-49.78,99.32S7.5,88.79.86,52.81A34.34,34.34,0,0,0,0,60.39C0,93.75,50.63,168.1,50.63,168.1s50.63-74.35,50.63-107.71A35,35,0,0,0,100.41,52.81Z"/><path class="cls-1" d="M98.72,47.23A49.73,49.73,0,0,0,95.29,40C81.9,75.89,50.63,121.8,50.63,121.8S19.37,75.89,6,40a50.87,50.87,0,0,0-3.44,7.19c10.26,36.61,48.09,92.16,48.09,92.16S88.46,83.84,98.72,47.23Z"/><path class="cls-1" d="M91.73,34.53C77.06,14.12,50.63,0,50.63,0S24.21,14.12,9.54,34.53c14.67,34.12,41.09,72.92,41.09,72.92S77.06,68.65,91.73,34.53Z"/><path d="M190.2,37.73a1,1,0,0,0-1.91,0L147.06,144.54h13.17L169.28,120l20-54.26h.39L209.25,120l8.92,24.58h13.17Z"/><path d="M273.66,85l-6.61-.39a14.75,14.75,0,0,0-8.62,2.43A15.55,15.55,0,0,0,253,93.88v50.66H240.11V73.63h11.53L252.89,84a24.69,24.69,0,0,1,7.44-8.59,17.41,17.41,0,0,1,10.19-3.08,16.19,16.19,0,0,1,2.75.23,18.39,18.39,0,0,1,2.16.49Z"/><path d="M310.93,135.76a17.41,17.41,0,0,0,11.31-4,12.1,12.1,0,0,0,4.88-9.73h11.6l.13.39q.33,9.18-8.16,16.32a29.74,29.74,0,0,1-19.76,7.15q-15.46,0-23.66-10.1t-8.19-25.36v-2.75q0-15.13,8.23-25.26t23.62-10.13q12.45,0,20.35,7.34a22.81,22.81,0,0,1,7.63,18l-.13.4H327.12a15,15,0,0,0-4.59-11,15.8,15.8,0,0,0-11.6-4.55q-10.15,0-14.51,7.3t-4.36,17.9v2.75q0,10.86,4.32,18.1T310.93,135.76Z"/><path d="M370.19,56.53v17.1h13.43V83.2H370.19v43.06c0,3.32.69,5.65,2.06,7a7.49,7.49,0,0,0,5.48,2,13.2,13.2,0,0,0,2.45-.26,15.85,15.85,0,0,0,2.4-.66l1.7,8.85a11.28,11.28,0,0,1-4.23,1.93,21.46,21.46,0,0,1-5.6.76q-7.86,0-12.52-4.76t-4.65-14.9V83.2H346V73.63h11.27V56.53Z"/><path d="M427.06,145.92q-14.81,0-23.56-9.87t-8.74-25.59v-2.88q0-15.14,9-25.2T425.1,72.32q14.36,0,21.69,8.65T454.13,104v8.06h-46l-.19.33q.19,10.18,5.18,16.76t13.95,6.57a32.32,32.32,0,0,0,11.5-1.87,26.52,26.52,0,0,0,8.56-5.14l5,8.39a29.83,29.83,0,0,1-10,6.27A40.43,40.43,0,0,1,427.06,145.92Zm-2-63.44A14,14,0,0,0,414,87.93a25.73,25.73,0,0,0-5.63,13.69l.13.32h32.7v-1.69a19.74,19.74,0,0,0-4.06-12.68Q433.1,82.49,425.1,82.48Z"/><path d="M500.26,85l-6.62-.39A14.77,14.77,0,0,0,485,87.07a15.55,15.55,0,0,0-5.41,6.81v50.66H466.7V73.63h11.54L479.48,84a24.69,24.69,0,0,1,7.44-8.59,17.43,17.43,0,0,1,10.19-3.08,16.19,16.19,0,0,1,2.75.23A18.62,18.62,0,0,1,502,73Z"/><path d="M521.47,73.63l.91,10.55a25.87,25.87,0,0,1,8.88-8.75,23.76,23.76,0,0,1,12.16-3.11q11.48,0,17.76,6.72t6.29,20.74v44.76H554.56V100q0-9.37-3.7-13.3t-11.31-3.93a18.2,18.2,0,0,0-9.86,2.68,19.77,19.77,0,0,0-6.85,7.34v51.71H509.93V73.63Z"/></g></g></svg>